<svg xmlns="http://www.w3.org/2000/svg" width="266.893" height="266.895"><path fill="#3C5A99" d="M252.163 266.895c8.134 0 14.73-6.596 14.73-14.73v-237.434c0-8.137-6.596-14.731-14.73-14.731h-237.432c-8.138 0-14.731 6.594-14.731 14.731v237.434c0 8.135 6.593 14.73 14.731 14.73h237.432z"/><path fill="#fff" d="M184.151 266.895v-103.356h34.693l5.194-40.28h-39.887v-25.716c0-11.662 3.238-19.609 19.962-19.609l21.33-.01v-36.027c-3.69-.49-16.351-1.587-31.081-1.587-30.752 0-51.806 18.771-51.806 53.244v29.705h-34.781v40.28h34.781v103.355h41.595z"/></svg>