<svg xmlns="http://www.w3.org/2000/svg" width="350" height="350"><path fill-rule="evenodd" clip-rule="evenodd" fill="#DD4B39" d="M208.387 25.992h-77.959c-10.346 0-21.431 1.211-33.255 3.626-11.947 2.802-23.462 8.784-34.544 17.944-16.135 15.657-24.202 33.09-24.202 52.308 0 15.909 5.693 29.843 17.081 41.805 10.879 12.855 26.697 19.409 47.447 19.662 3.921 0 8.095-.253 12.525-.763-.733 2.046-1.527 4.283-2.382 6.715-.978 2.303-1.465 5.185-1.465 8.638 0 5.76 1.281 10.689 3.847 14.782 2.198 4.224 4.703 8.192 7.514 11.903-9.095.255-20.524 1.395-34.285 3.43-13.893 2.413-27.156 7.24-39.783 14.483-11.242 6.729-19.009 14.543-23.299 23.437-4.42 8.893-6.631 16.959-6.631 24.202 0 14.863 6.798 27.63 20.387 38.303 13.465 11.432 33.852 17.276 61.156 17.533 32.616-.51 57.575-8.338 74.873-23.484 16.679-14.638 25.019-31.439 25.019-50.402-.237-13.365-3.277-24.184-9.115-32.458-6.195-8.146-13.402-15.588-21.621-22.337l-13.223-10.882c-1.908-1.909-3.874-4.135-5.898-6.683-2.383-2.673-3.574-6.044-3.574-10.118 0-4.2 1.162-7.891 3.485-11.074 1.973-3.055 4.121-5.789 6.444-8.209 4.064-3.562 7.897-7.064 11.497-10.501 3.251-3.438 6.329-7.19 9.234-11.266 5.924-8.4 9.002-19.599 9.234-33.601 0-7.638-.859-14.32-2.571-20.048-2.082-5.727-4.468-10.69-7.159-14.89-2.816-4.455-5.695-8.21-8.631-11.266-3.06-2.926-5.814-5.155-8.262-6.682h24.038l24.078-14.107zm-42.737 213.455c6.452 7.38 9.682 16.038 9.682 25.968 0 12.219-4.718 22.212-14.15 29.981-9.68 7.893-23.706 11.965-42.076 12.222-20.48-.256-36.616-4.839-48.407-13.749-12.414-8.914-18.617-20.244-18.617-33.991 0-7.003 1.426-12.985 4.281-17.95 2.484-4.711 5.523-8.659 9.124-11.839 3.723-3.054 7.383-5.411 10.984-7.064 3.598-1.53 6.39-2.674 8.378-3.439 8.438-2.547 16.691-4.391 24.761-5.536 8.192-.763 13.281-1.02 15.268-.763 3.351 0 6.266.124 8.749.381 14.523 10.183 25.195 18.775 32.023 25.779zm-12.654-115.167c-.942 5.231-3.063 10.331-6.362 15.303-6.842 7.017-15.393 10.716-25.654 11.097-8.123 0-15.343-2.483-21.659-7.46-6.317-4.972-11.474-11.03-15.467-18.173-8.254-15.304-12.378-30.038-12.378-44.195-.255-10.71 2.571-20.403 8.476-29.078 7-8.289 15.786-12.562 26.35-12.818 7.986.256 15.049 2.617 21.193 7.079 6.02 4.719 10.871 10.841 14.557 18.365 7.862 15.689 11.793 31.248 11.793 46.68.001 3.574-.284 7.974-.849 13.2zm177.008 23.716v-.209h-41v-41.791h-24v41.791h-41.258v23.322h.258v.887h41v41h24v-41h42v-24h-1z"/></svg>