<svg xmlns="http://www.w3.org/2000/svg" width="216" height="216"><path fill="#007BB6" d="M200.001 0h-184.057c-8.8 0-15.944 6.977-15.944 15.562v184.852c0 8.602 7.144 15.586 15.944 15.586h184.057c8.808 0 15.999-6.984 15.999-15.586v-184.852c0-8.585-7.191-15.562-15.999-15.562z"/><path fill="#fff" d="M32.01 80.984h32.051v103.078h-32.051v-103.078zm16.027-51.246c10.242 0 18.566 8.324 18.566 18.57 0 10.258-8.324 18.582-18.566 18.582-10.27 0-18.57-8.324-18.57-18.582 0-10.246 8.301-18.57 18.57-18.57"/><path fill="#fff" d="M84.154 80.984h30.734v14.078h.438c4.277-8.102 14.73-16.648 30.316-16.648 32.418 0 38.406 21.344 38.406 49.109v56.539h-32v-50.125c0-11.961-.234-27.336-16.652-27.336-16.672 0-19.215 13.023-19.215 26.469v50.992h-32.027v-103.078z"/></svg>